<svg width="37" height="37" viewBox="0 0 37 37" fill="none" xmlns="http://www.w3.org/2000/svg">
<path d="M16.9038 12.2907C15.8677 13.4663 14.8317 13.4663 14.8317 13.4663C14.2993 17.5992 17.3727 22.242 18.9759 24.0469L22.084 22.8712L25.1922 25.2225C25.5375 25.2225 26.021 25.6927 25.1922 27.5737C24.1561 29.9249 23.1201 29.9249 21.048 29.9249C13.5884 27.1035 11.0328 14.6419 10.6874 8.76383C10.6874 8.76383 13.7956 6.4126 14.8317 6.4126C15.8677 6.4126 17.9398 11.1151 16.9038 12.2907Z" stroke="#484848" stroke-linejoin="round"/>
<path d="M36.4999 18.4999C36.4999 28.441 28.441 36.4999 18.4999 36.4999C8.55885 36.4999 0.5 28.441 0.5 18.4999C0.5 8.55885 8.55885 0.5 18.4999 0.5C28.441 0.5 36.4999 8.55885 36.4999 18.4999Z" stroke="#484848"/>
</svg>
